<!-- Generator: visioncortex VTracer 0.6.12 -->
<svg version="1.1" xmlns="http://www.w3.org/2000/svg" viewBox="0 0 260 260">
<path d="M0 0 C1.072 -0.004 2.145 -0.009 3.249 -0.013 C3.83 -0.013 3.83 -0.013 6.768 -0.012 C8.003 -0.015 9.238 -0.018 10.51 -0.022 C13.886 -0.03 17.262 -0.033 20.639 -0.034 C22.752 -0.034 24.865 -0.036 26.978 -0.039 C34.36 -0.048 41.743 -0.052 49.125 -0.052 C55.99 -0.051 62.854 -0.062 69.718 -0.077 C75.625 -0.09 81.533 -0.096 87.441 -0.095 C90.963 -0.095 94.484 -0.098 98.006 -0.108 C101.939 -0.12 105.871 -0.115 109.803 -0.109 C110.958 -0.115 112.113 -0.12 113.303 -0.126 C123.097 -0.088 130.722 0.965 138.855 6.571 C139.457 6.966 140.059 7.361 140.679 7.768 C146.89 11.907 149.412 15.498 152.48 22.134 C152.772 22.761 153.065 23.389 153.366 24.036 C155.993 29.891 156.605 34.795 156.577 41.184 C156.577 41.514 156.577 41.514 156.573 43.181 C156.567 45.269 156.555 47.358 156.542 49.446 C156.537 50.869 156.533 52.291 156.528 53.714 C156.518 57.187 156.5 60.66 156.48 64.134 C157.428 64.416 158.377 64.698 159.355 64.989 C162.48 66.134 162.48 66.134 164.48 68.446 C165.48 71.134 165.48 71.134 164.98 73.759 C163.176 76.615 161.509 77.695 158.48 79.134 C157.82 79.134 157.16 79.134 156.48 79.134 C156.482 79.723 156.483 80.313 156.485 80.92 C156.529 95.294 156.563 109.667 156.583 124.041 C156.594 130.992 156.608 137.943 156.631 144.894 C156.653 151.605 156.664 158.316 156.669 165.027 C156.673 167.584 156.68 170.142 156.691 172.699 C156.706 176.288 156.708 179.875 156.707 183.464 C156.714 184.516 156.721 185.568 156.729 186.652 C156.69 200.376 153.079 208.377 143.792 218.446 C138.87 223.242 134.08 225.457 127.48 227.134 C127.175 227.227 127.175 227.227 125.632 227.7 C121.77 228.478 117.811 228.458 113.88 228.563 C108.894 228.801 108.894 228.801 106.632 230.618 C106.252 231.118 105.871 231.618 105.48 232.134 C103.605 233.009 103.605 233.009 101.48 233.134 C100.655 232.618 99.83 232.102 98.98 231.571 C98.155 231.097 97.33 230.622 96.48 230.134 C94.417 230.884 94.417 230.884 92.48 232.134 C90.542 232.946 90.542 232.946 88.48 233.134 C86.236 231.986 84.27 230.924 82.48 229.134 C79.769 229.019 77.083 228.969 74.371 228.96 C73.52 228.953 72.67 228.947 71.793 228.94 C69.938 228.926 68.083 228.914 66.228 228.904 C63.284 228.888 60.341 228.864 57.397 228.839 C49.025 228.768 40.652 228.708 32.279 228.657 C27.162 228.625 22.046 228.584 16.929 228.537 C14.984 228.521 13.039 228.508 11.095 228.5 C-17.229 228.373 -17.229 228.373 -28.52 218.134 C-35.543 210.65 -38.84 203.301 -39.691 193.178 C-39.771 192.278 -39.851 191.377 -39.933 190.45 C-40.947 177.537 -40.812 164.576 -40.789 151.632 C-40.784 147.868 -40.789 144.103 -40.792 140.339 C-40.795 134.03 -40.791 127.722 -40.781 121.413 C-40.77 114.162 -40.774 106.911 -40.785 99.66 C-40.794 93.379 -40.795 87.098 -40.79 80.818 C-40.787 77.09 -40.786 73.362 -40.793 69.635 C-40.8 65.48 -40.79 61.326 -40.779 57.171 C-40.783 55.968 -40.787 54.764 -40.791 53.524 C-40.73 41.043 -40.192 29.002 -33.52 18.134 C-32.943 17.061 -32.365 15.989 -31.77 14.884 C-28.586 10.992 -24.81 8.691 -20.52 6.134 C-19.737 5.654 -18.953 5.175 -18.145 4.681 C-12.118 1.138 -7.028 0.013 0 0 Z M-20.77 24.446 C-26.64 33.461 -25.666 45.649 -25.634 55.997 C-25.634 57.257 -25.634 58.516 -25.634 59.814 C-25.635 63.241 -25.629 66.668 -25.622 70.095 C-25.615 73.687 -25.615 77.278 -25.614 80.869 C-25.611 87.658 -25.602 94.447 -25.592 101.236 C-25.581 108.97 -25.576 116.704 -25.571 124.438 C-25.56 140.337 -25.543 156.235 -25.52 172.134 C-24.842 171.94 -24.164 171.747 -23.466 171.548 C-13.659 168.804 -4.571 166.83 5.636 166.859 C6.116 166.856 6.116 166.856 8.547 166.844 C11.691 166.83 14.835 166.831 17.98 166.833 C20.183 166.829 22.387 166.825 24.591 166.82 C29.197 166.813 33.803 166.813 38.409 166.818 C44.293 166.824 50.177 166.807 56.061 166.784 C60.608 166.769 65.155 166.768 69.702 166.771 C71.871 166.771 74.04 166.765 76.208 166.755 C79.247 166.743 82.285 166.75 85.323 166.761 C86.207 166.754 87.09 166.746 88 166.738 C94.13 166.789 99.807 167.712 105.48 170.134 C107.73 172.509 107.73 172.509 108.48 175.134 C108.042 177.821 108.042 177.821 106.48 180.134 C103.571 181.556 101.598 182.375 98.382 181.682 C94.206 180.893 90.1 180.986 85.859 180.988 C84.896 180.985 83.933 180.982 82.94 180.978 C79.759 180.969 76.579 180.967 73.398 180.966 C71.182 180.963 68.966 180.959 66.75 180.956 C62.106 180.95 57.462 180.948 52.817 180.948 C46.876 180.949 40.934 180.935 34.993 180.918 C30.416 180.907 25.839 180.904 21.262 180.905 C19.072 180.904 16.882 180.899 14.692 180.892 C11.624 180.882 8.556 180.885 5.488 180.891 C4.59 180.885 3.691 180.88 2.766 180.874 C-2.675 180.901 -7.291 181.621 -12.52 183.134 C-16.52 184.134 -20.52 185.134 -24.52 186.134 C-24.976 194.373 -24.276 200.874 -19.083 207.509 C-14.527 212.176 -10.228 212.956 -3.777 213.265 C-2.835 213.268 -1.894 213.271 -0.924 213.274 C0.165 213.28 1.254 213.286 2.376 213.291 C3.556 213.293 4.736 213.294 5.952 213.295 C7.206 213.3 8.46 213.305 9.753 213.31 C13.183 213.322 16.613 213.329 20.042 213.334 C22.189 213.337 24.336 213.341 26.482 213.345 C33.209 213.359 39.936 213.369 46.663 213.373 C54.409 213.377 62.154 213.395 69.899 213.424 C75.9 213.445 81.901 213.455 87.903 213.457 C91.48 213.458 95.058 213.464 98.636 213.481 C102.631 213.501 106.625 213.497 110.62 213.49 C111.793 213.499 112.967 213.509 114.177 213.518 C121.434 213.481 128.745 213.16 134.601 208.415 C135.035 207.827 135.47 207.239 135.917 206.634 C136.37 206.046 136.822 205.458 137.288 204.852 C141.37 198.964 141.63 194.382 141.542 187.321 C141.54 186.975 141.54 186.975 141.528 185.222 C141.517 183.526 141.499 181.83 141.48 180.134 C133.283 179.973 133.283 179.973 129.98 180.634 C124.968 181.636 120.235 181.865 115.48 179.884 C113.48 178.134 113.48 178.134 112.48 176.259 C112.48 173.141 113.611 171.583 115.48 169.134 C118.983 166.979 121.691 167.088 125.768 167.196 C129.012 167.121 132.095 166.651 135.296 166.134 C136.457 165.948 137.618 165.762 138.814 165.571 C139.254 165.499 139.254 165.499 141.48 165.134 C141.573 148.226 141.644 131.319 141.687 114.411 C141.707 106.56 141.736 98.709 141.781 90.857 C141.821 84.011 141.847 77.165 141.856 70.318 C141.861 66.696 141.873 63.074 141.903 59.452 C141.935 55.399 141.936 51.347 141.934 47.294 C141.941 46.7 141.941 46.7 141.977 43.691 C141.937 35.52 140.726 28.387 135.667 21.759 C129.732 17.35 124.616 15.017 117.186 14.993 C116.114 14.988 115.042 14.982 113.937 14.976 C112.765 14.975 111.594 14.974 110.387 14.973 C109.149 14.968 107.911 14.963 106.636 14.958 C103.243 14.945 99.85 14.938 96.458 14.934 C94.336 14.931 92.215 14.926 90.093 14.922 C83.451 14.908 76.808 14.899 70.165 14.895 C62.507 14.89 54.849 14.873 47.191 14.844 C41.264 14.822 35.338 14.812 29.412 14.811 C25.875 14.81 22.339 14.804 18.803 14.786 C14.855 14.766 10.908 14.771 6.961 14.777 C6.378 14.773 6.378 14.773 3.429 14.749 C-6.401 14.8 -13.696 17.175 -20.77 24.446 Z " fill="#000000" transform="translate(74.52033996582031,14.866287231445313)"/>
<path d="M0 0 C3.945 2.213 5.663 5.459 7.5 9.5 C7.598 12.552 6.395 14.055 4.562 16.438 C0.623 19.35 -2.239 19.822 -7.094 19.836 C-7.729 19.838 -7.729 19.838 -10.941 19.848 C-12.26 19.836 -13.579 19.824 -14.938 19.812 C-16.256 19.824 -17.575 19.836 -18.934 19.848 C-20.203 19.844 -21.473 19.84 -22.781 19.836 C-23.938 19.833 -25.095 19.829 -26.287 19.826 C-29.769 19.397 -31.642 18.521 -34.438 16.438 C-35.938 14.062 -35.938 14.062 -36.438 11.438 C-35.441 8.448 -34.426 6.943 -31.59 5.492 C-29.554 4.708 -27.536 4.034 -25.438 3.438 C-24.756 3.226 -24.074 3.015 -23.371 2.797 C-21.438 2.438 -21.438 2.438 -18.438 3.438 C-16.775 3.58 -15.106 3.658 -13.438 3.688 C-12.571 3.713 -11.705 3.739 -10.812 3.766 C-7.95 3.37 -7.311 2.545 -5.438 0.438 C-2.438 -0.562 -2.438 -0.562 0 0 Z " fill="#000000" transform="translate(103.4375,146.5625)"/>
<path d="M0 0 C3.052 1.017 5.006 1.089 8.191 1.027 C9.219 1.015 10.247 1.003 11.307 0.99 C13.45 0.956 15.593 0.917 17.736 0.873 C25.456 0.791 33.319 0.747 40.062 4.875 C43 8.097 43 8.097 43 11 C41.614 14.424 40.572 15.714 37.25 17.375 C33.509 18.094 30.762 17.544 27 17 C24.728 16.955 22.455 16.959 20.184 17.008 C19.554 17.016 19.554 17.016 16.369 17.059 C13.744 17.103 11.119 17.155 8.494 17.215 C7.237 17.229 5.979 17.243 4.684 17.258 C3.545 17.28 2.406 17.302 1.232 17.325 C-3.126 16.887 -6.294 15.236 -9.812 12.688 C-11.613 10.129 -11.876 8.106 -12 5 C-10.747 2.099 -9.627 0.481 -7.125 -1.438 C-4.174 -2.219 -2.695 -1.313 0 0 Z " fill="#000000" transform="translate(87,204)"/>
</svg>