<!-- Generator: visioncortex VTracer 0.6.12 -->
<svg version="1.1" xmlns="http://www.w3.org/2000/svg" viewBox="0 0 260 260">
<path d="M0 0 C5.523 3.465 10.171 7.738 14.93 12.172 C18.258 15.204 21.748 17.972 25.285 20.754 C29.22 23.916 32.943 27.308 36.691 30.688 C40.99 34.53 45.354 38.238 49.879 41.812 C53.389 44.587 56.527 47.523 59.691 50.688 C60.438 51.113 61.184 51.538 61.953 51.977 C70.832 57.524 77.961 65.958 81.691 75.688 C81.994 76.409 82.297 77.131 82.609 77.875 C85.45 84.915 85.841 91.476 85.837 98.947 C85.84 99.86 85.843 100.773 85.847 101.713 C85.856 104.722 85.858 107.73 85.859 110.738 C85.863 112.838 85.866 114.938 85.869 117.038 C85.875 121.436 85.877 125.835 85.877 130.234 C85.877 135.856 85.89 141.478 85.907 147.1 C85.919 151.437 85.921 155.773 85.92 160.11 C85.921 162.182 85.926 164.254 85.933 166.326 C85.943 169.231 85.94 172.135 85.934 175.04 C85.94 175.887 85.946 176.733 85.951 177.606 C85.877 191.878 80.968 202.225 70.92 212.195 C61.728 220.775 51.198 222.824 39.004 222.891 C38.183 222.896 37.362 222.902 36.517 222.908 C34.789 222.917 33.061 222.924 31.333 222.928 C28.7 222.937 26.067 222.969 23.434 223 C21.749 223.007 20.064 223.012 18.379 223.016 C17.988 223.022 17.988 223.022 16.011 223.053 C10.05 223.029 5.985 221.671 1.379 217.688 C-1.098 214.752 -1.434 212.249 -1.482 208.542 C-1.496 207.711 -1.509 206.879 -1.523 206.022 C-1.528 205.574 -1.528 205.574 -1.555 203.305 C-1.588 201.396 -1.621 199.487 -1.654 197.578 C-1.702 194.577 -1.746 191.575 -1.785 188.573 C-1.825 185.671 -1.877 182.769 -1.93 179.867 C-1.938 178.982 -1.947 178.098 -1.955 177.186 C-2.243 162.463 -2.243 162.463 -7.184 157.188 C-12.58 153.132 -19.241 153.246 -25.719 153.949 C-30.031 154.828 -32.803 156.068 -35.309 159.688 C-38.165 166.187 -38.738 172.206 -38.715 179.234 C-38.72 179.721 -38.72 179.721 -38.748 182.187 C-38.793 186.317 -38.805 190.448 -38.82 194.579 C-38.836 197.61 -38.868 200.641 -38.902 203.672 C-38.899 204.602 -38.896 205.532 -38.893 206.491 C-38.962 212.458 -39.855 215.825 -43.809 220.438 C-47.546 223.552 -52.34 222.867 -56.93 222.891 C-57.785 222.896 -58.64 222.902 -59.521 222.908 C-61.336 222.917 -63.151 222.924 -64.966 222.928 C-67.705 222.937 -70.443 222.968 -73.182 223 C-89.054 223.098 -100.862 221.133 -113.309 210.688 C-125.356 198.694 -126.395 183.774 -126.446 167.687 C-126.448 165.105 -126.445 162.523 -126.441 159.941 C-126.442 158.121 -126.443 156.301 -126.444 154.481 C-126.446 150.679 -126.444 146.878 -126.439 143.076 C-126.433 138.23 -126.437 133.384 -126.443 128.538 C-126.446 124.783 -126.445 121.028 -126.442 117.273 C-126.442 115.487 -126.443 113.702 -126.445 111.916 C-126.468 89.345 -124.654 73.602 -108.309 56.688 C-101.95 50.441 -95.37 44.559 -88.234 39.211 C-86.357 37.726 -84.718 36.16 -83.059 34.438 C-80.518 31.897 -78.359 30.503 -75.309 28.688 C-72.571 26.434 -69.945 24.058 -67.309 21.688 C-60.88 15.997 -54.368 10.408 -47.769 4.917 C-46.569 3.907 -45.392 2.869 -44.223 1.824 C-30.236 -9.994 -14.989 -8.522 0 0 Z M-51.941 26.785 C-54.108 28.661 -56.29 30.514 -58.496 32.344 C-60.765 34.234 -62.984 36.156 -65.184 38.125 C-67.814 40.44 -70.486 42.612 -73.309 44.688 C-78.495 48.509 -83.316 52.695 -87.871 57.25 C-91.667 61.046 -95.738 64.482 -99.996 67.75 C-108.519 74.891 -110.11 85.093 -111.309 95.688 C-111.664 101.982 -111.591 108.292 -111.574 114.594 C-111.576 116.409 -111.578 118.224 -111.58 120.039 C-111.583 123.824 -111.579 127.61 -111.569 131.395 C-111.558 136.216 -111.565 141.037 -111.576 145.858 C-111.584 149.6 -111.581 153.343 -111.576 157.085 C-111.575 158.862 -111.576 160.638 -111.581 162.414 C-111.64 191.013 -111.64 191.013 -104.309 200.688 C-97.315 206.264 -88.977 208.011 -80.188 207.883 C-79.443 207.88 -78.698 207.877 -77.931 207.874 C-75.577 207.863 -73.224 207.838 -70.871 207.812 C-69.265 207.802 -67.659 207.793 -66.053 207.785 C-62.138 207.763 -58.223 207.729 -54.309 207.688 C-54.294 206.558 -54.279 205.429 -54.264 204.266 C-54.206 200.035 -54.129 195.805 -54.046 191.574 C-54.013 189.751 -53.985 187.928 -53.962 186.104 C-53.71 166.515 -53.71 166.515 -50.309 158.688 C-49.85 157.598 -49.391 156.509 -48.918 155.387 C-44.805 148.488 -38.206 141.695 -30.309 139.688 C-21.705 138.238 -13.393 138.059 -5.309 141.688 C-1.62 144.379 1.54 147.393 4.691 150.688 C5.409 151.375 6.127 152.062 6.867 152.77 C13.343 159.578 12.821 169.963 13.008 178.781 C13.029 179.613 13.049 180.446 13.071 181.303 C13.136 183.931 13.195 186.559 13.254 189.188 C13.297 190.982 13.341 192.776 13.385 194.57 C13.491 198.943 13.593 203.315 13.691 207.688 C18.35 207.762 23.009 207.816 27.668 207.852 C29.249 207.867 30.83 207.888 32.411 207.914 C54.973 208.278 54.973 208.278 64 199.652 C70.198 192.452 70.841 184.705 70.853 175.574 C70.858 174.664 70.862 173.754 70.868 172.817 C70.882 169.813 70.889 166.809 70.895 163.805 C70.9 161.708 70.906 159.612 70.912 157.515 C70.922 153.119 70.928 148.723 70.932 144.326 C70.937 138.714 70.961 133.103 70.99 127.491 C71.008 123.159 71.013 118.826 71.015 114.494 C71.018 112.426 71.026 110.359 71.039 108.291 C71.136 91.944 70.447 79.511 59.129 66.812 C56.691 64.688 56.691 64.688 54.309 63.289 C51.711 61.699 49.623 59.989 47.379 57.938 C46.598 57.231 45.817 56.525 45.012 55.797 C44.246 55.101 43.48 54.405 42.691 53.688 C38.516 49.951 34.282 46.341 29.879 42.875 C25.22 39.185 20.862 35.231 16.492 31.207 C12.829 27.911 9.027 24.81 5.188 21.723 C3.067 19.993 1.032 18.21 -0.996 16.375 C-4.436 13.397 -8.165 11.514 -12.309 9.688 C-13.175 9.275 -14.041 8.863 -14.934 8.438 C-29.298 3.901 -42.15 18.302 -51.941 26.785 Z " fill="#000000" transform="translate(150.30859375,22.3125)"/>
</svg>