<!-- Generator: visioncortex VTracer 0.6.12 -->
<svg version="1.1" xmlns="http://www.w3.org/2000/svg" viewBox="0 0 260 260">
<path d="M0 0 C6.2 4.852 12.077 10.298 15.875 17.25 C16.17 17.789 16.17 17.789 17.664 20.52 C23.921 32.595 23.921 32.595 23.875 39.25 C23.911 40.405 23.947 41.56 23.984 42.75 C24.26 56.636 24.26 56.636 21.875 63.25 C21.514 64.259 21.153 65.269 20.781 66.309 C15.022 79.802 3.734 92.251 -9.75 98.25 C-22.874 103.08 -41.977 103.535 -54.965 98.051 C-66.981 91.782 -78.442 80.642 -84.125 68.25 C-84.447 67.585 -84.77 66.92 -85.102 66.234 C-90.064 54.084 -89.309 37.442 -84.312 25.5 C-80.588 17.914 -76.348 11.978 -70.125 6.25 C-69.529 5.662 -68.934 5.074 -68.32 4.469 C-48.23 -14.538 -22.458 -12.576 0 0 Z M-57.125 13.25 C-57.843 13.804 -58.561 14.359 -59.301 14.93 C-67.329 21.473 -71.399 28.95 -72.906 39.199 C-73.796 51.613 -72.574 63.267 -64.418 73.031 C-57.866 80.394 -51.028 85.04 -41.125 86.25 C-38.165 86.407 -35.214 86.435 -32.25 86.438 C-31.486 86.45 -30.721 86.462 -29.934 86.475 C-19.284 86.502 -10.354 83.525 -2.5 76.25 C6.864 66.465 9.22 56.082 9.023 42.98 C8.69 34.595 6.664 29.088 1.875 22.25 C1.174 21.157 0.472 20.064 -0.25 18.938 C-5.314 11.679 -14.317 7.213 -22.953 5.5 C-34.919 4.123 -47.489 5.366 -57.125 13.25 Z " fill="#000000" transform="translate(162.125,24.75)"/>
<path d="M0 0 C0.48 0.491 0.959 0.982 1.453 1.488 C3 3 3 3 5.211 4.227 C9.203 6.765 12.31 10.022 15.625 13.375 C16.293 14.035 16.96 14.695 17.648 15.375 C20.98 18.72 23.756 21.807 26 26 C26.544 26.804 27.088 27.609 27.648 28.438 C31.689 34.435 34.532 40.341 36.957 47.152 C38 50 38 50 38.992 51.886 C40.845 55.772 41.464 59.99 42.312 64.188 C42.519 65.096 42.726 66.004 42.939 66.939 C44.211 73.26 44.097 78.221 41 84 C39.414 85.799 38.3 86.86 36.125 87.875 C32.934 88.063 31.473 86.952 29 85 C27.39 82.22 26.827 80.8 27.51 77.636 C28.038 74.796 27.829 72.997 27.215 70.191 C27.017 69.286 26.819 68.381 26.616 67.448 C26.392 66.496 26.168 65.544 25.938 64.562 C25.823 64.072 25.823 64.072 25.244 61.589 C22.543 50.506 18.984 40.647 11.52 31.816 C10 30 10 30 8.5 27.375 C5.129 22.038 0.501 18.025 -5 15 C-6.04 14.221 -7.081 13.443 -8.152 12.641 C-24.38 0.982 -46.868 -2.514 -66.326 0.341 C-70.994 1.238 -75.478 2.545 -80 4 C-80.993 4.3 -81.985 4.601 -83.008 4.91 C-91.92 7.843 -100.454 12.214 -107 19 C-108.659 20.012 -110.326 21.013 -112 22 C-113.904 23.611 -115.025 25.041 -116.312 27.188 C-117.705 29.508 -119.109 31.361 -120.812 33.438 C-128.9 44.154 -132.547 58.328 -134.77 71.363 C-134.894 72.085 -135.018 72.807 -135.146 73.551 C-135.482 75.577 -135.789 77.607 -136.094 79.637 C-137.08 83.297 -138.062 84.679 -141 87 C-142.938 87.938 -142.938 87.938 -145 88 C-147.911 86.935 -149.502 85.871 -151.055 83.156 C-151.944 81.047 -152.682 79.271 -153 77 C-152.351 75.658 -151.681 74.326 -151 73 C-150.509 70.373 -150.08 67.766 -149.688 65.125 C-147.843 53.961 -144.217 43.964 -139 33.938 C-138.68 33.318 -138.36 32.698 -138.031 32.06 C-135.845 28.035 -133.258 25.179 -130 22 C-129.513 21.188 -129.025 20.376 -128.523 19.539 C-126.63 16.384 -124.229 13.937 -121.625 11.375 C-121.156 10.898 -120.687 10.421 -120.203 9.93 C-117.341 7.083 -114.479 5.013 -111 3 C-110.531 2.517 -110.061 2.034 -109.578 1.537 C-107.929 -0.069 -106.479 -0.933 -104.418 -1.938 C-104.075 -2.106 -104.075 -2.106 -102.342 -2.961 C-101.631 -3.304 -100.92 -3.647 -100.188 -4 C-99.488 -4.343 -98.789 -4.686 -98.068 -5.039 C-96.687 -5.716 -95.303 -6.39 -93.918 -7.059 C-92.246 -7.879 -90.597 -8.744 -88.953 -9.617 C-85.546 -11.213 -82.202 -12.179 -78.562 -13.125 C-77.306 -13.458 -76.049 -13.79 -74.754 -14.133 C-49.729 -19.914 -21.062 -15.038 0 0 Z " fill="#000000" transform="translate(184,159)"/>
</svg>