<!-- Generator: visioncortex VTracer 0.6.12 -->
<svg version="1.1" xmlns="http://www.w3.org/2000/svg" viewBox="0 0 260 260">
<path d="M0 0 C2.518 2.106 4.755 4.42 7 6.812 C8.219 8.075 9.441 9.335 10.664 10.594 C10.952 10.892 10.952 10.892 12.411 12.398 C14.312 14.314 16.307 16.08 18.375 17.812 C23.508 22.193 28.992 26.92 31.125 33.438 C31.269 33.86 31.269 33.86 32 36 C33.982 36.717 35.984 37.383 38 38 C40 40.312 40 40.312 41 43 C40.324 46.156 39.453 47.591 37.062 49.75 C35 51 35 51 32 52 C31.309 53.686 30.622 55.374 29.956 57.07 C28.248 60.519 25.471 62.901 22.688 65.5 C21.508 66.629 20.331 67.761 19.156 68.895 C18.602 69.429 18.048 69.963 17.477 70.514 C15.713 72.289 14.194 74.192 12.688 76.188 C9.198 79.839 6.912 80.238 2 81 C1.835 81.99 1.67 82.98 1.5 84 C0.267 88.346 -2.362 90.729 -5.637 93.715 C-7.582 95.595 -9.299 97.482 -11.051 99.535 C-16.371 105.684 -22.245 111.302 -28.03 117.009 C-29.532 118.494 -31.032 119.981 -32.531 121.469 C-33.414 122.34 -34.296 123.21 -35.205 124.107 C-37.234 126.161 -39.129 128.293 -41.005 130.488 C-50.258 141.151 -60.562 150.95 -70.504 160.964 C-73.293 163.776 -76.073 166.597 -78.844 169.427 C-82.215 172.869 -85.603 176.294 -89.003 179.706 C-90.286 180.999 -91.563 182.299 -92.833 183.604 C-99.557 190.503 -105.24 196.048 -114.619 199.125 C-117 200 -117 200 -119.562 202.562 C-130.172 213.172 -155.418 215.083 -169.855 217.066 C-174.213 216.974 -176.476 215.252 -179.75 212.562 C-184.382 206.772 -181.173 196.482 -180.458 189.777 C-179.521 181.523 -178.382 173.336 -176.75 165.188 C-176.582 164.271 -176.415 163.355 -176.242 162.411 C-174.963 156.536 -172.885 153.079 -168.575 148.874 C-166.696 146.639 -166.278 144.88 -165.562 142.062 C-163.646 136.204 -160.242 132.639 -156.031 128.312 C-155.327 127.577 -154.624 126.842 -153.898 126.085 C-145.381 117.235 -136.659 108.586 -127.938 99.938 C-124.694 96.72 -121.453 93.5 -118.215 90.277 C-117.492 89.563 -116.769 88.848 -116.024 88.112 C-112.063 84.169 -108.312 80.12 -104.663 75.888 C-102.117 72.997 -99.4 70.295 -96.656 67.594 C-96.37 67.309 -96.37 67.309 -94.921 65.87 C-92.511 63.476 -90.095 61.088 -87.679 58.7 C-81.223 52.309 -74.883 45.93 -69 39 C-58.132 26.767 -58.132 26.767 -50 26 C-49.979 25.175 -49.959 24.35 -49.938 23.5 C-48.572 18.403 -45.632 15.729 -42 12 C-40.964 10.901 -39.927 9.802 -38.891 8.703 C-37.762 7.53 -36.632 6.358 -35.5 5.188 C-34.967 4.624 -34.433 4.061 -33.884 3.48 C-24.211 -6.326 -11.514 -7.211 0 0 Z M-27.02 15.453 C-27.941 16.376 -28.863 17.299 -29.812 18.25 C-30.747 19.163 -31.682 20.075 -32.645 21.016 C-35.353 24.447 -36.334 26.683 -37 31 C-35.224 33.858 -35.224 33.858 -32.398 36.637 C-32.147 36.89 -32.147 36.89 -30.877 38.174 C-29.809 39.25 -28.732 40.318 -27.647 41.377 C-25.507 43.486 -23.449 45.665 -21.385 47.846 C-19.343 49.992 -17.269 52.104 -15.191 54.214 C-14.13 55.297 -13.076 56.386 -12.027 57.481 C-10.483 59.092 -8.92 60.682 -7.352 62.27 C-6.442 63.204 -5.533 64.138 -4.596 65.101 C-2 67 -2 67 0.631 66.964 C4.466 65.403 6.823 62.794 9.688 59.875 C10.268 59.318 10.849 58.761 11.447 58.188 C15.809 53.81 17.69 49.918 18.188 43.629 C17.292 33.762 10.671 28.438 3.523 22.246 C1.132 20.117 -1.053 17.89 -3.25 15.562 C-6.286 12.484 -8.635 10.794 -13 10 C-18.89 10 -22.552 11.824 -27.02 15.453 Z M-57.875 46.688 C-59.765 48.597 -61.602 50.532 -63.343 52.579 C-69.877 60.26 -77.156 67.216 -84.321 74.3 C-86.101 76.063 -87.879 77.828 -89.656 79.594 C-90.189 80.118 -90.721 80.642 -91.27 81.182 C-94.077 83.971 -96.744 86.826 -99.324 89.827 C-103.377 94.508 -107.746 98.835 -112.152 103.18 C-113.916 104.931 -115.68 106.682 -117.443 108.434 C-120.191 111.156 -122.94 113.877 -125.691 116.595 C-128.37 119.244 -131.043 121.899 -133.715 124.555 C-134.527 125.353 -135.338 126.151 -136.175 126.974 C-151.152 141.886 -151.152 141.886 -152 150 C-151.626 150.204 -151.626 150.204 -149.734 151.238 C-146.975 153.016 -145.34 154.679 -143.25 157.188 C-138.179 163.015 -132.565 168.186 -126.853 173.378 C-123.275 176.671 -120.178 179.566 -118 184 C-112.254 182.793 -109.002 180.716 -104.9 176.484 C-104.335 175.921 -103.77 175.358 -103.188 174.778 C-101.332 172.924 -99.494 171.052 -97.656 169.18 C-96.361 167.878 -95.065 166.577 -93.768 165.277 C-90.36 161.856 -86.967 158.419 -83.577 154.979 C-80.822 152.189 -78.057 149.41 -75.29 146.631 C-71.971 143.297 -68.657 139.958 -65.344 136.617 C-64.72 135.988 -64.096 135.359 -63.453 134.711 C-57.617 128.822 -51.817 122.954 -46.429 116.647 C-44.244 114.129 -41.904 111.811 -39.531 109.469 C-39.047 108.989 -38.563 108.508 -38.065 108.014 C-36.037 106.002 -34.003 103.997 -31.97 101.991 C-20.223 90.387 -20.223 90.387 -15 84 C-14.423 83.391 -13.846 82.782 -13.252 82.154 C-12 80 -12 80 -11.846 77.251 C-13.57 72.393 -16.816 69.528 -20.465 65.977 C-21.213 65.23 -21.962 64.484 -22.733 63.715 C-24.313 62.145 -25.9 60.58 -27.492 59.021 C-29.937 56.625 -32.364 54.211 -34.787 51.793 C-36.324 50.27 -37.863 48.748 -39.402 47.227 C-39.767 46.864 -39.767 46.864 -41.615 45.03 C-42.293 44.369 -42.97 43.707 -43.668 43.026 C-44.264 42.44 -44.861 41.854 -45.475 41.25 C-49.885 37.634 -54.766 43.62 -57.875 46.688 Z M-160 162 C-163.259 174.958 -165.002 187.681 -166 201 C-153.768 198.979 -141.686 196.174 -130 192 C-132.049 186.267 -134.469 183.108 -139.062 179.188 C-140.231 178.156 -141.398 177.122 -142.562 176.086 C-142.852 175.83 -142.852 175.83 -144.316 174.534 C-147.671 171.477 -150.761 168.159 -153.879 164.863 C-156.01 162.991 -157.227 162.371 -160 162 Z " fill="#000000" transform="translate(199,20)"/>
<path d="M0 0 C2 2.312 2 2.312 3 5 C2.361 8.743 1.161 9.871 -1.812 12.25 C-7.647 15.453 -13.35 15.153 -19.852 15.161 C-20.345 15.164 -20.345 15.164 -22.844 15.176 C-26.104 15.191 -29.365 15.198 -32.625 15.203 C-34.893 15.209 -37.16 15.215 -39.428 15.22 C-44.179 15.231 -48.93 15.237 -53.682 15.24 C-59.772 15.246 -65.861 15.27 -71.951 15.298 C-76.633 15.317 -81.315 15.322 -85.998 15.324 C-88.243 15.327 -90.489 15.335 -92.734 15.348 C-95.872 15.365 -99.01 15.363 -102.148 15.356 C-103.076 15.366 -104.004 15.375 -104.96 15.384 C-109.782 15.353 -113.115 15.194 -117 12 C-118.5 9.625 -118.5 9.625 -119 7 C-117.739 3.689 -116.46 2.299 -113.494 0.372 C-108.901 -1.431 -104.982 -1.39 -100.095 -1.325 C-99.114 -1.324 -98.133 -1.322 -97.122 -1.321 C-93.89 -1.314 -90.658 -1.286 -87.426 -1.258 C-85.177 -1.25 -82.928 -1.243 -80.68 -1.238 C-74.767 -1.221 -68.855 -1.186 -62.943 -1.148 C-53.469 -1.088 -43.995 -1.055 -34.521 -1.022 C-31.209 -1.008 -27.897 -0.986 -24.585 -0.964 C-22.562 -0.954 -20.54 -0.944 -18.517 -0.934 C-17.593 -0.926 -16.668 -0.917 -15.716 -0.909 C-14.871 -0.906 -14.026 -0.903 -13.155 -0.9 C-12.788 -0.898 -12.788 -0.898 -10.93 -0.885 C-2.964 -1.359 -2.964 -1.359 0 0 Z " fill="#000000" transform="translate(232,231)"/>
</svg>