<!-- Generator: visioncortex VTracer 0.6.12 -->
<svg version="1.1" xmlns="http://www.w3.org/2000/svg" viewBox="0 0 260 260">
<path d="M0 0 C2.856 1.804 3.936 3.47 5.375 6.5 C5.375 7.16 5.375 7.82 5.375 8.5 C6.097 8.603 6.819 8.706 7.562 8.812 C13.113 10.169 16.183 12.898 19.305 17.531 C21.722 21.978 22.375 26.454 22.375 31.5 C22.932 31.469 22.932 31.469 25.75 31.312 C32.994 31.376 39.241 33.038 44.812 37.812 C52.275 46.294 51.83 59.33 51.773 70.062 C51.775 70.68 51.775 70.68 51.782 73.803 C51.784 76.391 51.779 78.979 51.766 81.567 C51.75 85.491 51.766 89.413 51.785 93.336 C51.783 95.87 51.779 98.404 51.773 100.938 C51.78 102.09 51.786 103.243 51.792 104.43 C51.713 113.741 51.405 124.855 45.812 132.688 C39.743 138.637 30.427 139.003 22.375 139.5 C22.338 140.08 22.3 140.66 22.262 141.258 C21.593 149.204 19.229 154.449 13.375 159.949 C6.935 164.942 0.172 164.885 -7.68 163.992 C-14.815 162.8 -18.205 159.153 -22.891 153.949 C-26.727 148.532 -26.905 143.204 -26.82 136.82 C-26.817 136.008 -26.815 135.195 -26.812 134.357 C-26.801 131.78 -26.776 129.203 -26.75 126.625 C-26.74 124.87 -26.731 123.115 -26.723 121.359 C-26.701 117.073 -26.666 112.786 -26.625 108.5 C-27.273 108.53 -27.921 108.561 -28.589 108.592 C-52.268 109.653 -75.927 109.605 -99.625 109.5 C-99.64 110.513 -99.654 111.526 -99.669 112.57 C-99.728 116.367 -99.805 120.163 -99.887 123.959 C-99.92 125.595 -99.949 127.231 -99.971 128.867 C-100.29 151.075 -100.29 151.075 -107.812 158.438 C-113.474 163.696 -118.677 165.069 -126.488 164.809 C-133.575 163.785 -139.421 160.71 -144.219 155.426 C-147.939 150.331 -148.775 145.731 -148.625 139.5 C-149.554 139.39 -150.484 139.281 -151.441 139.168 C-167.304 137.133 -167.304 137.133 -172.875 131.562 C-179.344 123.099 -179.065 111.691 -178.988 101.52 C-178.989 100.873 -178.989 100.873 -178.99 97.6 C-178.99 94.885 -178.979 92.17 -178.961 89.454 C-178.938 85.998 -178.938 82.543 -178.945 79.087 C-178.949 75.752 -178.937 72.417 -178.926 69.082 C-178.926 68.468 -178.926 68.468 -178.929 65.36 C-178.842 54.856 -178.102 46.373 -170.625 38.5 C-165.082 33.385 -159.111 31.42 -151.625 31.375 C-150.635 31.416 -149.645 31.457 -148.625 31.5 C-148.588 30.92 -148.55 30.34 -148.512 29.742 C-147.847 21.847 -145.505 16.54 -139.699 11.051 C-133.598 6.489 -126.59 5.941 -119.23 6.938 C-112.155 8.465 -107.873 11.439 -103.809 17.441 C-96.733 29.747 -99.625 50.327 -99.625 62.5 C-75.535 62.5 -51.445 62.5 -26.625 62.5 C-26.875 44.5 -26.875 44.5 -26.985 38.867 C-26.997 37.37 -27.007 35.872 -27.016 34.375 C-27.036 33.617 -27.057 32.859 -27.078 32.078 C-27.082 25.266 -24.848 20.324 -20.66 15.004 C-20.335 14.684 -20.335 14.684 -18.688 13.062 C-18.039 12.404 -17.391 11.745 -16.723 11.066 C-14.338 9.286 -12.551 8.861 -9.625 8.5 C-9.512 8.036 -9.512 8.036 -8.938 5.688 C-7.625 2.5 -7.625 2.5 -5.312 0.5 C-2.625 -0.5 -2.625 -0.5 0 0 Z M-132.625 23.5 C-133.559 26.382 -134.189 28.918 -134.688 31.875 C-136.348 41.347 -136.348 41.347 -140.625 44.5 C-144.909 45.928 -149.34 46.168 -153.82 46.574 C-156.718 46.89 -159.088 47.152 -161.562 48.758 C-163.908 52.603 -163.754 57.079 -163.77 61.464 C-163.777 62.643 -163.783 63.821 -163.79 65.035 C-163.791 66.3 -163.792 67.564 -163.793 68.867 C-163.796 70.175 -163.8 71.483 -163.803 72.831 C-163.809 75.597 -163.811 78.362 -163.81 81.127 C-163.81 84.657 -163.824 88.186 -163.841 91.715 C-163.855 95.099 -163.854 98.483 -163.855 101.867 C-163.863 103.128 -163.87 104.388 -163.877 105.687 C-163.862 111.67 -163.722 116.867 -161.625 122.5 C-160.623 122.682 -159.622 122.864 -158.59 123.051 C-157.247 123.304 -155.905 123.558 -154.562 123.812 C-153.906 123.93 -153.249 124.048 -152.572 124.17 C-147.225 125.197 -142.422 126.677 -137.809 129.684 C-135.499 133.229 -135.057 137.677 -134.252 141.783 C-133.075 147.145 -133.075 147.145 -130.746 148.98 C-126.477 150.026 -122.373 150.083 -118.188 148.688 C-116.625 147.5 -116.625 147.5 -115.625 144.5 C-115.279 140.79 -115.201 137.063 -115.07 133.34 C-115.028 132.161 -114.986 130.983 -114.943 129.769 C-114.441 113.973 -114.474 98.172 -114.495 82.37 C-114.5 77.909 -114.497 73.448 -114.491 68.988 C-114.487 65.495 -114.489 62.002 -114.491 58.51 C-114.492 56.864 -114.491 55.219 -114.489 53.574 C-114.459 27.453 -114.459 27.453 -117.625 22.5 C-119.832 21.82 -119.832 21.82 -122.438 21.625 C-122.864 21.585 -122.864 21.585 -125.02 21.383 C-128.209 21.526 -129.938 21.715 -132.625 23.5 Z M-9.625 23.5 C-12.22 27.393 -11.977 30.734 -12.039 35.258 C-12.059 36.14 -12.078 37.022 -12.098 37.931 C-12.159 40.829 -12.205 43.727 -12.25 46.625 C-12.287 48.644 -12.325 50.662 -12.363 52.681 C-12.469 58.621 -12.553 64.56 -12.625 70.5 C-12.635 71.295 -12.644 72.091 -12.654 72.91 C-12.847 89.776 -12.638 106.638 -12.306 123.501 C-12.269 125.406 -12.235 127.31 -12.204 129.215 C-12.159 131.87 -12.101 134.525 -12.039 137.18 C-12.028 137.978 -12.016 138.776 -12.004 139.599 C-11.901 143.402 -11.783 145.262 -9.625 148.5 C-5.104 149.921 -0.091 150.142 4.504 148.945 C6.973 147.038 7.064 145.239 7.487 142.243 C7.574 141.565 7.661 140.886 7.75 140.188 C9.152 131.762 9.152 131.762 12 129.25 C19.145 125.545 26.487 123.9 34.375 122.5 C36.57 115.406 36.666 108.74 36.641 101.348 C36.643 100.093 36.644 98.838 36.646 97.546 C36.648 94.9 36.645 92.256 36.636 89.611 C36.624 86.244 36.631 82.878 36.643 79.511 C36.652 76.269 36.646 73.027 36.641 69.785 C36.645 68.588 36.649 67.391 36.653 66.157 C36.617 59.62 36.069 53.82 34.375 47.5 C33.206 47.318 32.037 47.136 30.832 46.949 C29.284 46.696 27.736 46.442 26.188 46.188 C25.419 46.07 24.65 45.952 23.857 45.83 C18.794 44.983 14.331 44.112 11.082 39.773 C9.004 35.363 7.689 31.197 6.867 26.383 C6.375 24.5 6.375 24.5 4.375 22.5 C-0.936 21.438 -4.593 21.104 -9.625 23.5 Z M-99.625 77.5 C-99.625 83.11 -99.625 88.72 -99.625 94.5 C-75.267 94.608 -50.962 94.61 -26.625 93.5 C-26.625 88.22 -26.625 82.94 -26.625 77.5 C-50.715 77.5 -74.805 77.5 -99.625 77.5 Z " fill="#000000" transform="translate(192.625,43.5)"/>
</svg>